<?xml version="1.0" encoding="UTF-8" standalone="no"?>
<!DOCTYPE svg PUBLIC "-//W3C//DTD SVG 1.1//EN"
 "http://www.w3.org/Graphics/SVG/1.1/DTD/svg11.dtd">
<!-- Generated by graphviz version 8.0.5 (0)
 -->
<!-- Title: DiskGraph Pages: 1 -->
<svg width="379pt" height="210pt"
 viewBox="0.00 0.00 379.00 209.91" xmlns="http://www.w3.org/2000/svg" xmlns:xlink="http://www.w3.org/1999/xlink">
<g id="graph0" class="graph" transform="scale(1 1) rotate(0) translate(4 205.91)">
<title>DiskGraph</title>
<polygon fill="white" stroke="none" points="-4,4 -4,-205.91 375,-205.91 375,4 -4,4"/>
<g id="clust1" class="cluster">
<title>cluster_graph</title>
<polygon fill="none" stroke="white" points="8,-8 8,-180.21 200,-180.21 200,-8 8,-8"/>
</g>
<g id="clust4" class="cluster">
<title>cluster_legend</title>
<polygon fill="none" stroke="black" points="208,-115.66 208,-193.91 363,-193.91 363,-115.66 208,-115.66"/>
<text text-anchor="middle" x="285.5" y="-176.61" font-family="Times,serif" font-size="14.00">Next State Actions</text>
</g>
<!-- 4136073071416591435 -->
<g id="node1" class="node">
<title>4136073071416591435</title>
<ellipse fill="lightgrey" stroke="black" cx="104" cy="-142.16" rx="78.67" ry="30.05"/>
<text text-anchor="middle" x="104" y="-146.11" font-family="Times,serif" font-size="14.00">/\ V = 0</text>
<text text-anchor="middle" x="104" y="-128.86" font-family="Times,serif" font-size="14.00">/\ pc = &quot;Plus&quot;</text>
</g>
<!-- 3571277140746335006 -->
<g id="node2" class="node">
<title>3571277140746335006</title>
<ellipse fill="none" stroke="black" cx="104" cy="-46.05" rx="88.21" ry="30.05"/>
<text text-anchor="middle" x="104" y="-50" font-family="Times,serif" font-size="14.00">/\ V = 1</text>
<text text-anchor="middle" x="104" y="-32.75" font-family="Times,serif" font-size="14.00">/\ pc = &quot;Minus&quot;</text>
</g>
<!-- 4136073071416591435&#45;&gt;3571277140746335006 -->
<g id="edge1" class="edge">
<title>4136073071416591435&#45;&gt;3571277140746335006</title>
<path fill="none" stroke="#1f78b4" d="M95.6,-111.9C95.04,-104.02 94.87,-95.36 95.09,-87.01"/>
<polygon fill="#1f78b4" stroke="#1f78b4" points="98.62,-87.45 95.6,-77.29 91.63,-87.12 98.62,-87.45"/>
</g>
<!-- 3571277140746335006&#45;&gt;4136073071416591435 -->
<g id="edge2" class="edge">
<title>3571277140746335006&#45;&gt;4136073071416591435</title>
<path fill="none" stroke="#b2df8a" d="M113.1,-76.29C113.7,-84.17 113.89,-92.83 113.65,-101.18"/>
<polygon fill="#b2df8a" stroke="#b2df8a" points="110.12,-100.73 113.1,-110.9 117.11,-101.09 110.12,-100.73"/>
</g>
<!-- Plus -->
<g id="node3" class="node">
<title>Plus</title>
<polygon fill="#1f78b4" stroke="black" points="301,-124.16 301,-160.16 355,-160.16 355,-124.16 301,-124.16"/>
<text text-anchor="middle" x="327.88" y="-137.48" font-family="Times,serif" font-size="14.00">Plus</text>
</g>
<!-- Minus -->
<g id="node4" class="node">
<title>Minus</title>
<polygon fill="#b2df8a" stroke="black" points="215.88,-124.16 215.88,-160.16 276.12,-160.16 276.12,-124.16 215.88,-124.16"/>
<text text-anchor="middle" x="246" y="-137.48" font-family="Times,serif" font-size="14.00">Minus</text>
</g>
</g>
</svg>
